<svg width="161" height="161" viewBox="0 0 161 161" fill="none" xmlns="http://www.w3.org/2000/svg">
<rect x="35" y="133.676" width="40" height="8" rx="4" fill="#0065BD"/>
<rect width="9" height="59.2576" rx="4.5" transform="matrix(0.876464 -0.481467 0.459712 0.888068 37.9699 42.146)" fill="#0065BD"/>
<rect width="9" height="71.8274" rx="4.5" transform="matrix(0.876464 -0.481467 0.459712 0.888068 46.1174 23.3332)" fill="#0065BD" fill-opacity="0.9"/>
<rect width="9" height="59.2576" rx="4.5" transform="matrix(0.876464 -0.481467 0.459712 0.888068 66.5955 26.4211)" fill="#0065BD" fill-opacity="0.8"/>
<rect width="9" height="46.3381" rx="4.5" transform="matrix(0.876464 -0.481467 0.459712 0.888068 86.4607 30.2446)" fill="#0065BD" fill-opacity="0.7"/>
<path d="M127 86.8644C124.481 85.9252 121.479 83.9366 119.12 82.1942C116.74 80.4368 113.433 80.4226 111.133 82.2832C103.669 88.3219 100.43 89.9342 93.6667 93.2542M93.6667 93.2542C87.9565 96.0571 81.8073 98.6667 74.2104 100.809C70.5321 101.846 68.6586 105.796 70.9863 108.827C77.6977 117.567 93.8956 132.858 127 137M93.6667 93.2542C101.286 102.593 107.952 108.983 127 111.932" stroke="black" stroke-opacity="0.8" stroke-width="9" stroke-linecap="round"/>
</svg>
