<svg width="344" height="148" viewBox="0 0 344 148" fill="none" xmlns="http://www.w3.org/2000/svg">
<rect x="22" y="123.676" width="40" height="8" rx="4" fill="#0065BD"/>
<rect width="9" height="59.2576" rx="4.5" transform="matrix(0.876464 -0.481467 0.459712 0.888068 24.9698 32.146)" fill="#0065BD"/>
<rect width="9" height="71.8274" rx="4.5" transform="matrix(0.876464 -0.481467 0.459712 0.888068 33.1174 13.3332)" fill="#0065BD" fill-opacity="0.9"/>
<rect width="9" height="59.2576" rx="4.5" transform="matrix(0.876464 -0.481467 0.459712 0.888068 53.5955 16.4211)" fill="#0065BD" fill-opacity="0.8"/>
<rect width="9" height="46.3381" rx="4.5" transform="matrix(0.876464 -0.481467 0.459712 0.888068 73.4607 20.2446)" fill="#0065BD" fill-opacity="0.7"/>
<path d="M114 76.8644C112.183 76.1869 110.114 74.9632 108.217 73.6798C104.542 71.1937 99.6235 71.1496 96.1258 73.88C90.0259 78.6415 86.7921 80.2475 80.6667 83.2542M80.6667 83.2542C75.8747 85.6064 70.7734 87.8225 64.7669 89.7404C59.3059 91.484 56.5605 97.3997 60.3534 101.698C68.1909 110.581 84.2843 123.282 114 127M80.6667 83.2542C88.2857 92.5932 94.9524 98.983 114 101.932" stroke="black" stroke-opacity="0.8" stroke-width="9" stroke-linecap="round"/>
<path d="M130.588 132C129.76 132 129.04 131.694 128.428 131.082C127.852 130.47 127.564 129.75 127.564 128.922V106.998C127.564 106.17 127.852 105.45 128.428 104.838C129.04 104.226 129.76 103.92 130.588 103.92H132.802C133.666 103.92 134.386 104.226 134.962 104.838C135.574 105.414 135.898 106.134 135.934 106.998L135.988 107.43C135.988 107.466 136.006 107.484 136.042 107.484L136.15 107.376C138.49 104.712 141.298 103.38 144.574 103.38C147.85 103.38 150.208 104.316 151.648 106.188C153.088 108.024 153.808 111.174 153.808 115.638V128.922C153.808 129.75 153.502 130.47 152.89 131.082C152.314 131.694 151.612 132 150.784 132H148.408C147.58 132 146.86 131.694 146.248 131.082C145.636 130.47 145.33 129.75 145.33 128.922V115.908C145.33 113.748 145.042 112.272 144.466 111.48C143.89 110.652 142.846 110.238 141.334 110.238C140.074 110.238 138.904 110.76 137.824 111.804C136.78 112.812 136.258 113.91 136.258 115.098V128.922C136.258 129.75 135.952 130.47 135.34 131.082C134.764 131.694 134.062 132 133.234 132H130.588ZM164.029 132C163.201 132 162.481 131.694 161.869 131.082C161.257 130.47 160.951 129.75 160.951 128.922V94.578C160.951 93.75 161.257 93.03 161.869 92.418C162.481 91.806 163.201 91.5 164.029 91.5H166.621C167.449 91.5 168.169 91.806 168.781 92.418C169.393 93.03 169.699 93.75 169.699 94.578V106.836C169.699 106.872 169.717 106.89 169.753 106.89C169.789 106.89 169.825 106.872 169.861 106.836C172.381 104.532 175.081 103.38 177.961 103.38C181.273 103.38 183.649 104.334 185.089 106.242C186.529 108.114 187.249 111.48 187.249 116.34V128.922C187.249 129.75 186.943 130.47 186.331 131.082C185.719 131.694 184.999 132 184.171 132H181.795C180.967 132 180.247 131.694 179.635 131.082C179.023 130.47 178.717 129.75 178.717 128.922V117.42C178.717 114.54 178.429 112.632 177.853 111.696C177.313 110.76 176.269 110.292 174.721 110.292C173.497 110.292 172.345 110.832 171.265 111.912C170.221 112.956 169.699 114.072 169.699 115.26V128.922C169.699 129.75 169.393 130.47 168.781 131.082C168.169 131.694 167.449 132 166.621 132H164.029ZM207.345 119.148C202.953 119.148 200.757 120.498 200.757 123.198C200.757 124.17 201.045 124.944 201.621 125.52C202.197 126.06 202.971 126.33 203.943 126.33C205.671 126.33 207.075 125.79 208.155 124.71C209.235 123.594 209.775 122.118 209.775 120.282V119.634C209.775 119.31 209.613 119.148 209.289 119.148H207.345ZM201.297 132.54C198.813 132.54 196.761 131.748 195.141 130.164C193.557 128.544 192.765 126.456 192.765 123.9C192.765 117.348 197.625 114.072 207.345 114.072H209.289C209.613 114.072 209.775 113.928 209.775 113.64V113.37C209.775 112.002 209.415 111.012 208.695 110.4C208.011 109.788 206.841 109.482 205.185 109.482C202.989 109.482 200.361 109.824 197.301 110.508C196.545 110.652 195.861 110.49 195.249 110.022C194.673 109.554 194.385 108.942 194.385 108.186V108.078C194.385 107.178 194.655 106.368 195.195 105.648C195.771 104.892 196.491 104.442 197.355 104.298C200.523 103.686 203.259 103.38 205.563 103.38C210.279 103.38 213.609 104.226 215.553 105.918C217.533 107.61 218.523 110.418 218.523 114.342V128.922C218.523 129.75 218.217 130.47 217.605 131.082C216.993 131.694 216.273 132 215.445 132H213.447C212.583 132 211.845 131.712 211.233 131.136C210.621 130.524 210.297 129.786 210.261 128.922V128.328C210.261 128.292 210.243 128.274 210.207 128.274C210.135 128.274 210.099 128.292 210.099 128.328C207.831 131.136 204.897 132.54 201.297 132.54ZM228.41 132C227.582 132 226.862 131.694 226.25 131.082C225.674 130.47 225.386 129.75 225.386 128.922V106.998C225.386 106.17 225.674 105.45 226.25 104.838C226.862 104.226 227.582 103.92 228.41 103.92H230.624C231.488 103.92 232.208 104.226 232.784 104.838C233.396 105.414 233.72 106.134 233.756 106.998L233.81 107.43C233.81 107.466 233.828 107.484 233.864 107.484L233.972 107.376C236.312 104.712 239.12 103.38 242.396 103.38C245.672 103.38 248.03 104.316 249.47 106.188C250.91 108.024 251.63 111.174 251.63 115.638V128.922C251.63 129.75 251.324 130.47 250.712 131.082C250.136 131.694 249.434 132 248.606 132H246.23C245.402 132 244.682 131.694 244.07 131.082C243.458 130.47 243.152 129.75 243.152 128.922V115.908C243.152 113.748 242.864 112.272 242.288 111.48C241.712 110.652 240.668 110.238 239.156 110.238C237.896 110.238 236.726 110.76 235.646 111.804C234.602 112.812 234.08 113.91 234.08 115.098V128.922C234.08 129.75 233.774 130.47 233.162 131.082C232.586 131.694 231.884 132 231.056 132H228.41ZM270.815 109.86C267.215 109.86 265.415 112.56 265.415 117.96C265.415 120.696 265.901 122.73 266.873 124.062C267.845 125.394 269.159 126.06 270.815 126.06C272.255 126.06 273.515 125.574 274.595 124.602C275.675 123.63 276.215 122.532 276.215 121.308V114.612C276.215 113.388 275.675 112.29 274.595 111.318C273.515 110.346 272.255 109.86 270.815 109.86ZM267.845 132.54C264.641 132.54 262.013 131.262 259.961 128.706C257.909 126.114 256.883 122.532 256.883 117.96C256.883 113.28 257.873 109.68 259.853 107.16C261.833 104.64 264.497 103.38 267.845 103.38C270.797 103.38 273.479 104.478 275.891 106.674C275.927 106.71 275.963 106.728 275.999 106.728C276.035 106.728 276.053 106.71 276.053 106.674V94.578C276.053 93.75 276.341 93.03 276.917 92.418C277.529 91.806 278.249 91.5 279.077 91.5H281.723C282.551 91.5 283.253 91.806 283.829 92.418C284.441 93.03 284.747 93.75 284.747 94.578V128.922C284.747 129.75 284.441 130.47 283.829 131.082C283.253 131.694 282.551 132 281.723 132H279.671C278.807 132 278.069 131.712 277.457 131.136C276.881 130.524 276.575 129.786 276.539 128.922V128.49C276.539 128.454 276.521 128.436 276.485 128.436L276.377 128.544C274.109 131.208 271.265 132.54 267.845 132.54ZM302.192 121.2C298.304 120.48 295.514 119.364 293.822 117.852C292.166 116.34 291.338 114.342 291.338 111.858C291.338 109.194 292.328 107.124 294.308 105.648C296.324 104.136 299.348 103.38 303.38 103.38C305.756 103.38 308.186 103.578 310.67 103.974C311.534 104.118 312.236 104.532 312.776 105.216C313.352 105.9 313.64 106.692 313.64 107.592V107.862C313.64 108.618 313.334 109.23 312.722 109.698C312.146 110.166 311.48 110.328 310.724 110.184C308.384 109.716 306.224 109.482 304.244 109.482C302.768 109.482 301.724 109.662 301.112 110.022C300.536 110.382 300.248 110.922 300.248 111.642C300.248 113.01 301.328 113.91 303.488 114.342C307.592 115.026 310.454 116.106 312.074 117.582C313.73 119.058 314.558 121.2 314.558 124.008C314.558 126.708 313.55 128.814 311.534 130.326C309.518 131.802 306.584 132.54 302.732 132.54C299.924 132.54 297.26 132.27 294.74 131.73C293.876 131.55 293.156 131.1 292.58 130.38C292.04 129.624 291.77 128.778 291.77 127.842V127.41C291.77 126.654 292.076 126.078 292.688 125.682C293.3 125.25 293.984 125.124 294.74 125.304C297.08 125.916 299.384 126.222 301.652 126.222C304.316 126.222 305.648 125.448 305.648 123.9C305.648 123.18 305.396 122.622 304.892 122.226C304.424 121.83 303.524 121.488 302.192 121.2Z" fill="black" fill-opacity="0.8"/>
</svg>
